<?xml version="1.0" encoding="iso-8859-1"?>
<!-- Generator: Adobe Illustrator 19.0.0, SVG Export Plug-In . SVG Version: 6.00 Build 0)  -->
<svg version="1.1" id="Capa_1" xmlns="http://www.w3.org/2000/svg" xmlns:xlink="http://www.w3.org/1999/xlink" x="0px" y="0px"
	 viewBox="0 0 371.521 371.521" style="enable-background:new 0 0 371.521 371.521;" xml:space="preserve">
<path style="fill:#00E7FF;" d="M47.787,93.592c-1.746,0-3.494-0.667-4.826-2L25.894,74.525c-2.666-2.666-2.666-6.987,0-9.653
	c2.666-2.666,6.987-2.666,9.653,0l17.067,17.067c2.666,2.666,2.666,6.987,0,9.653C51.28,92.925,49.534,93.592,47.787,93.592z"/>
<g>
	<path style="fill:#FFE600;" d="M278.917,240.492l-131.366-64.123c-5.023-2.603-11.018,1.043-11.018,6.7v128.246
		c0,5.658,5.996,9.303,11.018,6.7l131.366-64.123C284.349,251.078,284.349,243.306,278.917,240.492z"/>
	<path style="fill:#FFE600;" d="M144.114,325.716c-2.58,0-5.18-0.707-7.501-2.12c-4.326-2.63-6.907-7.219-6.907-12.279V183.069
		c0-5.06,2.58-9.65,6.907-12.279c4.313-2.637,9.58-2.807,14.08-0.483l131.214,64.053c0.046,0.024,0.101,0.046,0.147,0.07
		c4.787,2.48,7.76,7.369,7.76,12.764s-2.973,10.283-7.76,12.764l-131.507,64.193C148.54,325.192,146.328,325.716,144.114,325.716z
		 M144.067,182.342c-0.113,0-0.227,0.031-0.36,0.113c-0.346,0.21-0.346,0.493-0.346,0.613v128.247c0,0.119,0,0.403,0.346,0.613
		c0.346,0.217,0.613,0.08,0.707,0.024l131.507-64.193l0,0c-0.007,0,0.241-0.14,0.241-0.567c0-0.387-0.2-0.536-0.34-0.613
		l-131.26-64.077C144.401,182.422,144.247,182.342,144.067,182.342z"/>
</g>
<g>
	<path style="fill:#00E7FF;" d="M81.92,86.765c-3.773,0-6.827-3.057-6.827-6.827V52.632c0-3.77,3.053-6.827,6.827-6.827
		c3.773,0,6.827,3.057,6.827,6.827v27.307C88.747,83.709,85.693,86.765,81.92,86.765z"/>
	<path style="fill:#00E7FF;" d="M34.133,120.899H6.827c-3.773,0-6.827-3.057-6.827-6.827s3.053-6.827,6.827-6.827h27.307
		c3.773,0,6.827,3.057,6.827,6.827S37.907,120.899,34.133,120.899z"/>
</g>
<path style="fill:#FFFFFF;" d="M207.551,179.052L76.186,114.929c-5.023-2.603-11.018,1.043-11.018,6.7v128.246
	c0,5.658,5.996,9.303,11.018,6.7l131.366-64.123C212.985,189.638,212.985,181.866,207.551,179.052z"/>
<path style="fill:#602F75;" d="M72.747,264.276c-2.58,0-5.18-0.707-7.501-2.12c-4.326-2.63-6.907-7.219-6.907-12.279V121.629
	c0-5.06,2.58-9.649,6.907-12.279c4.313-2.637,9.58-2.807,14.08-0.483l131.22,64.053c0.046,0.024,0.101,0.046,0.147,0.07
	c4.787,2.48,7.76,7.369,7.76,12.764s-2.973,10.283-7.76,12.764L79.179,262.711C77.174,263.752,74.967,264.276,72.747,264.276z
	 M72.701,120.902c-0.113,0-0.227,0.031-0.36,0.113c-0.346,0.21-0.346,0.493-0.346,0.613v128.247c0,0.119,0,0.403,0.346,0.613
	c0.34,0.217,0.606,0.08,0.707,0.024l131.514-64.193l0,0c-0.007,0,0.241-0.14,0.241-0.567c0-0.387-0.2-0.536-0.34-0.613
	L73.196,121.062C73.033,120.986,72.88,120.902,72.701,120.902z"/>
<path style="fill:#EA3457;" d="M218.24,217.699v32.176c0,5.658,5.996,9.303,11.018,6.7l131.366-64.123
	c5.434-2.814,5.434-10.586,0-13.402l-131.366-64.123c-5.023-2.603-11.018,1.043-11.018,6.7v30.52"/>
<path style="fill:#602F75;" d="M225.821,264.276c-2.58,0-5.18-0.707-7.501-2.12c-4.326-2.63-6.907-7.219-6.907-12.279v-32.178
	c0-3.77,3.053-6.827,6.827-6.827s6.827,3.057,6.827,6.827v32.178c0,0.119,0,0.403,0.346,0.613c0.346,0.217,0.613,0.08,0.707,0.024
	l131.507-64.193l0,0c-0.007,0,0.241-0.14,0.241-0.567c0-0.437-0.259-0.573-0.387-0.637l-131.214-64.053
	c-0.259-0.13-0.507-0.263-0.853-0.046c-0.346,0.21-0.346,0.493-0.346,0.613v30.52c0,3.77-3.053,6.827-6.827,6.827
	s-6.827-3.057-6.827-6.827v-30.52c0-5.06,2.58-9.649,6.907-12.279c4.313-2.637,9.58-2.807,14.08-0.483l131.214,64.053
	c4.934,2.55,7.907,7.439,7.907,12.834s-2.973,10.283-7.76,12.764l-131.507,64.193C230.246,263.752,228.035,264.276,225.821,264.276z
	"/>
<g>
</g>
<g>
</g>
<g>
</g>
<g>
</g>
<g>
</g>
<g>
</g>
<g>
</g>
<g>
</g>
<g>
</g>
<g>
</g>
<g>
</g>
<g>
</g>
<g>
</g>
<g>
</g>
<g>
</g>
</svg>
