<?xml version="1.0" encoding="iso-8859-1"?>
<!-- Generator: Adobe Illustrator 19.0.0, SVG Export Plug-In . SVG Version: 6.00 Build 0)  -->
<svg version="1.1" id="Capa_1" xmlns="http://www.w3.org/2000/svg" xmlns:xlink="http://www.w3.org/1999/xlink" x="0px" y="0px"
	 viewBox="0 0 371.528 371.528" style="enable-background:new 0 0 371.528 371.528;" xml:space="preserve">
<g>
	<path style="fill:#00E7FF;" d="M323.741,93.602c-1.746,0-3.494-0.667-4.826-2c-2.666-2.666-2.666-6.987,0-9.653l17.067-17.067
		c2.666-2.666,6.987-2.666,9.653,0c2.666,2.666,2.666,6.987,0,9.653l-17.067,17.067C327.235,92.935,325.487,93.602,323.741,93.602z"
		/>
	<path style="fill:#00E7FF;" d="M289.608,86.775c-3.773,0-6.827-3.057-6.827-6.827V52.642c0-3.77,3.053-6.827,6.827-6.827
		s6.827,3.057,6.827,6.827v27.307C296.434,83.719,293.381,86.775,289.608,86.775z"/>
</g>
<g>
	<path style="fill:#FFE600;" d="M89.725,240.502l131.366-64.123c5.023-2.603,11.018,1.043,11.018,6.7v128.246
		c0,5.658-5.996,9.303-11.018,6.7L89.725,253.902C84.291,251.088,84.291,243.316,89.725,240.502z"/>
	<path style="fill:#FFE600;" d="M224.567,325.712c-2.26,0-4.519-0.539-6.62-1.623L86.733,260.036
		c-4.934-2.55-7.907-7.439-7.907-12.834s2.973-10.283,7.76-12.764c0.046-0.024,0.101-0.046,0.147-0.07l131.36-64.123
		c4.34-2.263,9.62-2.074,13.933,0.553c4.326,2.63,6.907,7.219,6.907,12.279v128.247c0,5.06-2.58,9.65-6.907,12.279
		C229.728,325.009,227.147,325.712,224.567,325.712z M92.82,246.589c-0.14,0.077-0.34,0.227-0.34,0.613
		c0,0.437,0.259,0.573,0.387,0.637l131.214,64.053c0.259,0.13,0.507,0.263,0.853,0.046c0.346-0.21,0.346-0.493,0.346-0.613V183.078
		c0-0.119,0-0.403-0.346-0.613c-0.34-0.21-0.601-0.08-0.707-0.024L92.82,246.589z"/>
</g>
<path style="fill:#00E7FF;" d="M364.701,120.909h-27.307c-3.773,0-6.827-3.057-6.827-6.827c0-3.77,3.053-6.827,6.827-6.827h27.307
	c3.773,0,6.827,3.057,6.827,6.827C371.528,117.852,368.474,120.909,364.701,120.909z"/>
<path style="fill:#EA3457;" d="M163.973,179.062l131.366-64.123c5.023-2.603,11.018,1.043,11.018,6.7v128.246
	c0,5.658-5.996,9.303-11.018,6.7l-131.366-64.123C158.539,189.648,158.539,181.876,163.973,179.062z"/>
<path style="fill:#602F75;" d="M298.82,264.272c-2.26,0-4.526-0.539-6.62-1.626l-131.22-64.049
	c-4.934-2.55-7.907-7.439-7.907-12.834s2.973-10.283,7.76-12.764c0.046-0.024,0.101-0.046,0.147-0.07l131.367-64.123
	c4.333-2.249,9.593-2.077,13.926,0.55c4.326,2.63,6.907,7.219,6.907,12.283v128.247c0,5.064-2.58,9.653-6.907,12.283
	C303.968,263.569,301.394,264.272,298.82,264.272z M167.067,185.149c-0.14,0.077-0.34,0.227-0.34,0.613
	c0,0.437,0.259,0.573,0.387,0.637l131.22,64.053c0.253,0.123,0.493,0.266,0.846,0.05c0.346-0.21,0.346-0.507,0.346-0.616V121.638
	c0-0.109,0-0.406-0.346-0.616c-0.333-0.196-0.587-0.084-0.7-0.024L167.067,185.149z"/>
<path style="fill:#FFFFFF;" d="M153.286,215.209v34.676c0,5.658-5.996,9.303-11.018,6.7L10.902,192.463
	c-5.434-2.814-5.434-10.586,0-13.402l131.366-64.123c5.023-2.603,11.018,1.043,11.018,6.7v34.038"/>
<path style="fill:#602F75;" d="M145.748,264.272c-2.26,0-4.519-0.539-6.62-1.623L7.907,198.596C2.973,196.047,0,191.157,0,185.762
	s2.973-10.283,7.76-12.764l131.514-64.193c4.333-2.256,9.614-2.08,13.933,0.553c4.326,2.63,6.907,7.219,6.907,12.279v34.036
	c0,3.77-3.053,6.827-6.827,6.827s-6.827-3.057-6.827-6.827v-34.036c0-0.119,0-0.403-0.346-0.613
	c-0.34-0.207-0.606-0.077-0.707-0.024L13.894,185.194l0,0c0.007,0-0.241,0.14-0.241,0.567c0,0.437,0.259,0.573,0.387,0.637
	l131.22,64.053c0.259,0.126,0.507,0.259,0.853,0.046c0.346-0.21,0.346-0.493,0.346-0.613v-34.676c0-3.77,3.053-6.827,6.827-6.827
	s6.827,3.057,6.827,6.827v34.676c0,5.06-2.58,9.65-6.907,12.279C150.907,263.569,148.326,264.272,145.748,264.272z"/>
<g>
</g>
<g>
</g>
<g>
</g>
<g>
</g>
<g>
</g>
<g>
</g>
<g>
</g>
<g>
</g>
<g>
</g>
<g>
</g>
<g>
</g>
<g>
</g>
<g>
</g>
<g>
</g>
<g>
</g>
</svg>
