<?xml version="1.0" encoding="iso-8859-1"?>
<!-- Generator: Adobe Illustrator 19.0.0, SVG Export Plug-In . SVG Version: 6.00 Build 0)  -->
<svg version="1.1" id="Capa_1" xmlns="http://www.w3.org/2000/svg" xmlns:xlink="http://www.w3.org/1999/xlink" x="0px" y="0px"
	 viewBox="0 0 409.6 409.6" style="enable-background:new 0 0 409.6 409.6;" xml:space="preserve">
<g>
	<circle style="fill:#FFE600;" cx="204.8" cy="204.8" r="197.973"/>
	<path style="fill:#FFE600;" d="M204.8,409.6C91.873,409.6,0,317.727,0,204.8S91.873,0,204.8,0s204.8,91.873,204.8,204.8
		S317.727,409.6,204.8,409.6z M204.8,13.653C99.4,13.653,13.653,99.4,13.653,204.8S99.4,395.947,204.8,395.947
		S395.947,310.2,395.947,204.8S310.2,13.653,204.8,13.653z"/>
</g>
<path style="fill:#FFFFFF;" d="M271.23,362.056c61.256-25.909,104.236-86.564,104.236-157.256
	c0-94.256-76.411-170.667-170.667-170.667S34.133,110.544,34.133,204.8S110.544,375.467,204.8,375.467"/>
<path style="fill:#602F75;" d="M204.8,382.293c-97.871,0-177.493-79.623-177.493-177.493S106.929,27.307,204.8,27.307
	S382.293,106.929,382.293,204.8c0,71.497-42.551,135.69-108.404,163.54c-3.477,1.473-7.48-0.154-8.946-3.627
	c-1.469-3.473,0.157-7.48,3.627-8.946c60.79-25.709,100.07-84.966,100.07-150.967c0-90.341-73.499-163.84-163.84-163.84
	S40.96,114.459,40.96,204.8s73.499,163.84,163.84,163.84c3.77,0,6.827,3.057,6.827,6.827S208.57,382.293,204.8,382.293z"/>
<path style="fill:#EA3457;" d="M184.32,273.067h-20.48c-3.77,0-6.827-3.057-6.827-6.827V150.187c0-3.77,3.057-6.827,6.827-6.827
	h20.48c3.77,0,6.827,3.057,6.827,6.827V266.24C191.147,270.01,188.09,273.067,184.32,273.067z"/>
<path style="fill:#602F75;" d="M184.32,279.893h-20.48c-7.53,0-13.653-6.124-13.653-13.653V150.187
	c0-7.53,6.124-13.653,13.653-13.653h20.48c7.53,0,13.653,6.124,13.653,13.653V266.24C197.973,273.77,191.85,279.893,184.32,279.893z
	 M163.84,150.187V266.24h20.49l-0.01-116.053H163.84z"/>
<path style="fill:#EA3457;" d="M245.76,273.067h-20.48c-3.77,0-6.827-3.057-6.827-6.827V150.187c0-3.77,3.057-6.827,6.827-6.827
	h20.48c3.77,0,6.827,3.057,6.827,6.827V266.24C252.587,270.01,249.53,273.067,245.76,273.067z"/>
<path style="fill:#602F75;" d="M245.76,279.893h-20.48c-7.53,0-13.653-6.124-13.653-13.653V150.187
	c0-7.53,6.124-13.653,13.653-13.653h20.48c7.53,0,13.653,6.124,13.653,13.653V266.24C259.413,273.77,253.29,279.893,245.76,279.893z
	 M225.28,150.187V266.24h20.49l-0.01-116.053H225.28z"/>
<g>
</g>
<g>
</g>
<g>
</g>
<g>
</g>
<g>
</g>
<g>
</g>
<g>
</g>
<g>
</g>
<g>
</g>
<g>
</g>
<g>
</g>
<g>
</g>
<g>
</g>
<g>
</g>
<g>
</g>
</svg>
